<svg width="224" height="79" viewBox="0 0 224 79" fill="none" xmlns="http://www.w3.org/2000/svg">
<rect x="0.5" y="0.5" width="223" height="78" rx="39" fill="#F3F6FA"/>
<path d="M86.1067 30.53V23.46H87.1847C89.5367 23.46 90.5167 24.762 90.5167 26.918V27.03C90.5167 29.242 89.4387 30.53 87.1987 30.53H86.1067ZM84.2447 32H87.2547C90.7687 32 92.4627 29.928 92.4627 27.016V26.89C92.4627 23.978 90.7687 21.99 87.2827 21.99H84.2447V32ZM97.5748 30.824C96.2868 30.824 95.5448 29.886 95.5448 28.388V28.276C95.5448 26.764 96.3148 25.854 97.5748 25.854C98.8348 25.854 99.5908 26.778 99.5908 28.29V28.388C99.5908 29.886 98.8348 30.824 97.5748 30.824ZM97.5608 32.14C99.7168 32.14 101.327 30.656 101.327 28.374V28.262C101.327 26.022 99.7168 24.524 97.5748 24.524C95.4188 24.524 93.8088 26.036 93.8088 28.304V28.416C93.8088 30.642 95.4048 32.14 97.5608 32.14ZM104.364 32H106.1L107.584 27.072L108.942 32H110.664L112.96 24.678H111.308L109.782 29.97L108.354 24.678H106.94L105.386 29.97L103.93 24.678H102.124L104.364 32ZM114.455 32H116.149V27.688C116.149 26.526 116.919 25.938 117.871 25.938C118.879 25.938 119.327 26.442 119.327 27.548V32H121.021V27.394C121.021 25.378 119.985 24.524 118.515 24.524C117.311 24.524 116.499 25.126 116.149 25.84V24.678H114.455V32ZM123.214 32H124.908V21.29H123.214V32ZM130.449 30.824C129.161 30.824 128.419 29.886 128.419 28.388V28.276C128.419 26.764 129.189 25.854 130.449 25.854C131.709 25.854 132.465 26.778 132.465 28.29V28.388C132.465 29.886 131.709 30.824 130.449 30.824ZM130.435 32.14C132.591 32.14 134.201 30.656 134.201 28.374V28.262C134.201 26.022 132.591 24.524 130.449 24.524C128.293 24.524 126.683 26.036 126.683 28.304V28.416C126.683 30.642 128.279 32.14 130.435 32.14ZM137.85 32.14C138.97 32.14 139.614 31.734 140.09 31.104V32H141.756V27.198C141.756 25.196 140.468 24.524 138.83 24.524C137.192 24.524 135.834 25.238 135.694 26.946H137.332C137.416 26.218 137.85 25.798 138.732 25.798C139.726 25.798 140.062 26.288 140.062 27.268V27.646H139.152C137.052 27.646 135.4 28.262 135.4 29.97C135.4 31.496 136.506 32.14 137.85 32.14ZM138.256 30.922C137.416 30.922 137.08 30.516 137.08 29.9C137.08 29.004 137.906 28.71 139.194 28.71H140.062V29.438C140.062 30.376 139.292 30.922 138.256 30.922ZM146.641 32.14C147.719 32.14 148.657 31.496 149.049 30.768V32H150.743V21.29H149.049V25.798C148.643 25.07 147.901 24.524 146.711 24.524C144.807 24.524 143.421 26.008 143.421 28.346V28.458C143.421 30.838 144.807 32.14 146.641 32.14ZM147.061 30.796C145.969 30.796 145.157 30.026 145.157 28.416V28.304C145.157 26.722 145.885 25.854 147.131 25.854C148.363 25.854 149.105 26.652 149.105 28.262V28.374C149.105 30.012 148.237 30.796 147.061 30.796ZM159.769 30.824C158.481 30.824 157.739 29.886 157.739 28.388V28.276C157.739 26.764 158.509 25.854 159.769 25.854C161.029 25.854 161.785 26.778 161.785 28.29V28.388C161.785 29.886 161.029 30.824 159.769 30.824ZM159.755 32.14C161.911 32.14 163.521 30.656 163.521 28.374V28.262C163.521 26.022 161.911 24.524 159.769 24.524C157.613 24.524 156.003 26.036 156.003 28.304V28.416C156.003 30.642 157.599 32.14 159.755 32.14ZM165.251 32H166.945V27.688C166.945 26.526 167.715 25.938 168.667 25.938C169.675 25.938 170.123 26.442 170.123 27.548V32H171.817V27.394C171.817 25.378 170.781 24.524 169.311 24.524C168.107 24.524 167.295 25.126 166.945 25.84V24.678H165.251V32ZM179.997 32.126C180.515 32.126 180.879 32.042 181.145 31.944V30.6C180.907 30.698 180.655 30.74 180.319 30.74C179.787 30.74 179.479 30.446 179.479 29.802V25.952H181.089V24.678H179.479V23.068H177.785V24.678H176.805V25.952H177.785V29.956C177.785 31.342 178.541 32.126 179.997 32.126ZM182.873 32H184.567V27.688C184.567 26.526 185.337 25.938 186.289 25.938C187.297 25.938 187.745 26.442 187.745 27.548V32H189.439V27.394C189.439 25.378 188.403 24.524 186.933 24.524C185.729 24.524 184.917 25.126 184.567 25.84V21.29H182.873V32ZM194.81 32.14C196.686 32.14 197.932 31.3 198.17 29.76H196.532C196.406 30.474 195.874 30.88 194.852 30.88C193.592 30.88 192.892 30.096 192.836 28.71H198.198V28.22C198.198 25.602 196.56 24.524 194.74 24.524C192.654 24.524 191.1 26.036 191.1 28.304V28.416C191.1 30.726 192.654 32.14 194.81 32.14ZM192.864 27.576C193.032 26.442 193.718 25.756 194.74 25.756C195.79 25.756 196.434 26.316 196.518 27.576H192.864Z" fill="#373F41"/>
<path d="M82.8675 60H85.8675L87.2115 55.752H93.7635L95.1315 60H98.4435L92.7795 42.84H88.6035L82.8675 60ZM90.4995 45.456L93.0195 53.424H87.9555L90.4995 45.456ZM101.023 64.296H103.927V58.032C104.599 59.256 106.039 60.24 108.031 60.24C111.271 60.24 113.599 57.792 113.599 53.76V53.568C113.599 49.512 111.175 47.184 108.031 47.184C106.183 47.184 104.623 48.264 103.927 49.464V47.448H101.023V64.296ZM107.311 57.936C105.199 57.936 103.831 56.616 103.831 53.808V53.616C103.831 50.832 105.271 49.464 107.287 49.464C109.183 49.464 110.623 50.832 110.623 53.616V53.808C110.623 56.496 109.447 57.936 107.311 57.936ZM116.41 64.296H119.314V58.032C119.986 59.256 121.426 60.24 123.418 60.24C126.658 60.24 128.986 57.792 128.986 53.76V53.568C128.986 49.512 126.562 47.184 123.418 47.184C121.57 47.184 120.01 48.264 119.314 49.464V47.448H116.41V64.296ZM122.698 57.936C120.586 57.936 119.218 56.616 119.218 53.808V53.616C119.218 50.832 120.658 49.464 122.674 49.464C124.57 49.464 126.01 50.832 126.01 53.616V53.808C126.01 56.496 124.834 57.936 122.698 57.936ZM143.788 60.24C147.58 60.24 150.1 57.912 150.1 54.936C150.1 51.504 148.012 50.352 143.98 49.8C141.004 49.368 140.428 48.672 140.428 47.28C140.428 45.96 141.436 45.024 143.38 45.024C145.348 45.024 146.38 45.792 146.692 47.592H149.62C149.284 44.304 147.076 42.624 143.38 42.624C139.804 42.624 137.404 44.736 137.404 47.544C137.404 50.76 139.348 52.008 143.452 52.56C146.236 53.016 147.028 53.616 147.028 55.2C147.028 56.784 145.684 57.84 143.788 57.84C140.884 57.84 140.188 56.4 139.972 54.672H136.9C137.14 57.912 139.108 60.24 143.788 60.24ZM157.423 60.216C158.311 60.216 158.935 60.072 159.391 59.904V57.6C158.983 57.768 158.551 57.84 157.975 57.84C157.063 57.84 156.535 57.336 156.535 56.232V49.632H159.295V47.448H156.535V44.688H153.631V47.448H151.951V49.632H153.631V56.496C153.631 58.872 154.927 60.216 157.423 60.216ZM167.826 57.984C165.618 57.984 164.346 56.376 164.346 53.808V53.616C164.346 51.024 165.666 49.464 167.826 49.464C169.986 49.464 171.282 51.048 171.282 53.64V53.808C171.282 56.376 169.986 57.984 167.826 57.984ZM167.802 60.24C171.498 60.24 174.258 57.696 174.258 53.784V53.592C174.258 49.752 171.498 47.184 167.826 47.184C164.13 47.184 161.37 49.776 161.37 53.664V53.856C161.37 57.672 164.106 60.24 167.802 60.24ZM177.082 60H179.986V53.472C179.986 50.808 181.522 49.992 184.066 49.968V47.256C181.954 47.28 180.778 48.216 179.986 49.8V47.448H177.082V60ZM192.107 60.24C195.323 60.24 197.459 58.8 197.867 56.16H195.059C194.843 57.384 193.931 58.08 192.179 58.08C190.019 58.08 188.819 56.736 188.723 54.36H197.915V53.52C197.915 49.032 195.107 47.184 191.987 47.184C188.411 47.184 185.747 49.776 185.747 53.664V53.856C185.747 57.816 188.411 60.24 192.107 60.24ZM188.771 52.416C189.059 50.472 190.235 49.296 191.987 49.296C193.787 49.296 194.891 50.256 195.035 52.416H188.771Z" fill="#373F41"/>
<g clip-path="url(#clip0)">
<path d="M32.7469 64.0641C31.7611 63.4082 30.8874 62.5979 30.1594 61.6641C29.3586 60.7003 28.6166 59.6891 27.9375 58.636C26.3439 56.3013 25.0941 53.7497 24.2266 51.0594C23.1844 47.9344 22.6797 44.9391 22.6797 42.0094C22.6797 38.7375 23.3875 35.8813 24.7719 33.4813C25.7981 31.6054 27.3069 30.0378 29.1422 28.9407C30.9208 27.8359 32.9644 27.2314 35.0578 27.1907C35.7906 27.1907 36.5797 27.2969 37.4172 27.5C38.0187 27.6704 38.7516 27.9391 39.6469 28.2735C40.7859 28.7125 41.4125 28.9813 41.625 29.0469C42.2922 29.2907 42.8531 29.3969 43.2937 29.3969C43.6281 29.3969 44.1 29.2907 44.6359 29.1282C44.9375 29.0219 45.5062 28.8344 46.3203 28.486C47.1266 28.1922 47.7609 27.9407 48.2656 27.7532C49.0391 27.525 49.7875 27.3141 50.4547 27.2078C51.2456 27.0832 52.0483 27.0501 52.8469 27.1094C54.2307 27.1999 55.5936 27.4931 56.8922 27.9797C59.0156 28.8344 60.7328 30.1688 62.0109 32.0657C61.4707 32.3986 60.9637 32.7827 60.4969 33.2125C59.4806 34.1134 58.615 35.1711 57.9328 36.3454C57.0411 37.9501 56.5788 39.7579 56.5906 41.5938C56.6234 43.8485 57.2016 45.8344 58.3406 47.5516C59.178 48.8243 60.2664 49.9126 61.5391 50.75C62.1906 51.1891 62.7516 51.4907 63.2891 51.6938C63.0375 52.475 62.7687 53.2313 62.4516 53.9813C61.7322 55.6632 60.8603 57.2756 59.8469 58.7985C58.9437 60.1094 58.2359 61.086 57.6984 61.736C56.8609 62.7282 56.0547 63.486 55.2406 64.0141C54.3453 64.6078 53.2875 64.925 52.2125 64.925C51.4845 64.953 50.7566 64.8649 50.0562 64.6641C49.4547 64.461 48.8594 64.2407 48.2734 63.9891C47.6643 63.7093 47.0362 63.4728 46.3937 63.2813C44.8058 62.8734 43.1408 62.8707 41.5516 63.2735C40.9 63.461 40.2734 63.6797 39.6547 63.9485C38.7844 64.3141 38.2062 64.5594 37.8719 64.6641C37.2047 64.8594 36.5125 64.9813 35.8125 65.0219C34.7297 65.0219 33.7203 64.7125 32.7203 64.086L32.7469 64.0641ZM47.0281 25.6032C45.6125 26.311 44.2609 26.6125 42.9187 26.5141C42.7078 25.1625 42.9187 23.7797 43.4797 22.2657C43.9572 20.983 44.6629 19.7972 45.5625 18.7657C46.5125 17.6798 47.6653 16.7897 48.9562 16.1453C50.3312 15.4375 51.6422 15.0547 52.8953 14.9985C53.0578 16.4141 52.8953 17.8063 52.375 19.311C51.8935 20.6411 51.1892 21.8796 50.2922 22.9735C49.3766 24.0609 48.2531 24.9544 46.9875 25.6016L47.0281 25.6032Z" fill="#1565D8"/>
</g>
<rect x="0.5" y="0.5" width="223" height="78" rx="39" stroke="#E8E8E8"/>
<defs>
<clipPath id="clip0">
<rect width="50" height="50" fill="white" transform="translate(18 15)"/>
</clipPath>
</defs>
</svg>
