<svg width="130" height="150" viewBox="0 0 130 150" fill="none" xmlns="http://www.w3.org/2000/svg">
<path d="M129.144 110.056C125.613 117.86 123.923 121.35 119.388 128.247C113.051 137.879 104.103 149.899 93.0411 149.981C83.2018 150.064 80.6622 143.573 67.3088 143.68C53.9554 143.744 51.1737 150.099 41.3225 149.999C30.2606 149.899 21.7914 139.07 15.4484 129.455C-2.28723 102.487 -4.15943 70.8789 6.80206 54.0611C14.5566 42.136 26.8292 35.1329 38.3518 35.1329C50.087 35.1329 57.4635 41.5701 67.1671 41.5701C76.5812 41.5701 82.3159 35.1153 95.8878 35.1153C106.152 35.1153 117.008 40.6976 124.762 50.3297C99.3901 64.206 103.512 100.376 129.144 110.056ZM85.5878 24.3514C90.5252 18.0263 94.2696 9.10156 92.9112 0C84.8555 0.548215 75.4354 5.68258 69.9311 12.3319C64.9464 18.3858 60.8122 27.3813 62.4246 36.082C71.2126 36.365 80.3079 31.1363 85.5878 24.3514Z" fill="#1565D8"/>
</svg>
