<svg width="16" height="12" viewBox="0 0 16 12" fill="none" xmlns="http://www.w3.org/2000/svg">
<path d="M2.6665 6.22697L1.45939 6.22697L2.31294 7.08052L5.72333 10.4909L6.07688 10.1374L5.72333 10.4909C5.81189 10.5795 5.81189 10.723 5.72333 10.8115C5.63482 10.9001 5.49119 10.9001 5.40269 10.8115L0.751715 6.16058C0.663151 6.07201 0.663151 5.9285 0.751714 5.83993L0.398161 5.48638L0.751719 5.83993L5.40243 1.1891C5.44697 1.1446 5.50425 1.12257 5.56289 1.12257C5.62157 1.12257 5.67881 1.14461 5.72321 1.18896C5.81178 1.27752 5.81178 1.42104 5.72322 1.5096L5.72321 1.50961L2.31294 4.91999L1.45942 5.77354L2.6665 5.77354L15.0877 5.77354C15.2129 5.77354 15.3145 5.87511 15.3145 6.00026C15.3145 6.12543 15.2129 6.22697 15.0877 6.22697L2.6665 6.22697Z" fill="#363A41" stroke="#363A41"/>
</svg>
