<svg width="295" height="190" viewBox="0 0 295 190" fill="none" xmlns="http://www.w3.org/2000/svg">
<g clip-path="url(#clip0)">
<path d="M258.507 175.427C267.994 165.916 267.994 150.496 258.507 140.986C249.021 131.475 233.64 131.475 224.153 140.986C214.666 150.496 214.666 165.916 224.153 175.427C233.64 184.937 249.021 184.937 258.507 175.427Z" fill="#363A41"/>
<path d="M241.195 160.447C245.672 159.453 248.498 155.009 247.507 150.521C246.516 146.033 242.083 143.2 237.606 144.193C233.129 145.187 230.303 149.631 231.294 154.119C232.285 158.607 236.718 161.44 241.195 160.447Z" fill="white"/>
<path d="M236.635 152.879C238.128 152.548 239.07 151.067 238.739 149.571C238.409 148.075 236.932 147.13 235.439 147.461C233.947 147.793 233.005 149.274 233.335 150.77C233.666 152.266 235.143 153.21 236.635 152.879Z" fill="#363A41"/>
<path d="M240.37 141.742C230.436 141.724 223.461 139.945 223.478 130.921C223.495 121.898 231.562 114.598 241.497 114.616C251.432 114.635 259.472 121.965 259.455 130.988C259.439 140.012 250.305 141.761 240.37 141.742Z" fill="#1565D8"/>
<path d="M279.405 162.277C276.555 172.188 268.234 179.126 259.555 185.019C258.343 185.842 257.131 186.646 255.918 187.431C255.91 187.435 255.901 187.443 255.893 187.446C255.835 187.484 255.776 187.522 255.722 187.559C255.472 187.721 255.221 187.883 254.973 188.043L255.109 188.104C255.109 188.104 255.243 188.176 255.097 188.116C255.053 188.097 255.008 188.081 254.964 188.063C249.922 186.024 244.79 183.835 240.926 180.016C236.918 176.05 234.575 169.829 236.746 164.619C237.031 163.936 237.391 163.288 237.82 162.686C237.996 162.433 238.186 162.191 238.383 161.954C239.58 160.489 241.145 159.37 242.917 158.713C244.688 158.055 246.603 157.882 248.463 158.212C250.323 158.542 252.062 159.363 253.501 160.59C254.94 161.817 256.027 163.406 256.65 165.194C257.288 159.242 252.392 154.256 247.681 150.578C242.968 146.901 237.612 142.896 236.701 136.977C236.192 133.684 237.334 130.493 239.415 127.931C239.48 127.853 239.544 127.775 239.61 127.699C242.143 124.715 245.706 122.799 249.587 122.334C256.814 121.581 263.834 125.416 269.085 130.454C277.535 138.559 282.644 151.009 279.405 162.277Z" fill="#E8E8E8"/>
<path d="M265.82 149.314C267.207 151.478 268.272 153.832 268.981 156.304C269.581 158.513 269.848 160.8 269.773 163.088C269.58 167.796 268.261 172.39 265.928 176.481C264.171 179.585 262.03 182.454 259.555 185.019C258.343 185.842 257.131 186.646 255.918 187.431C255.91 187.435 255.901 187.443 255.893 187.446C255.835 187.484 255.776 187.522 255.722 187.56C255.472 187.721 255.221 187.883 254.973 188.043C254.973 188.043 255.243 188.176 255.097 188.116C255.053 188.098 255.008 188.081 254.964 188.063C255.416 184.348 254.973 180.579 253.673 177.072C252.373 173.564 250.253 170.42 247.491 167.903C244.722 165.424 241.409 163.637 237.82 162.686C237.996 162.433 238.186 162.191 238.383 161.954C239.769 162.344 241.118 162.856 242.414 163.483C247.047 165.714 250.841 169.381 253.234 173.941C255.381 178.082 256.305 182.751 255.897 187.4C256.105 187.212 256.312 187.02 256.513 186.829C260.345 183.248 263.748 179.137 266.051 174.393C268.049 170.376 269.031 165.927 268.911 161.44C268.723 156.546 266.778 152.014 263.962 148.068C260.876 143.859 257.231 140.092 253.127 136.873C248.991 133.552 244.465 130.751 239.65 128.532C239.542 128.481 239.457 128.39 239.413 128.278C239.369 128.166 239.37 128.042 239.415 127.931C239.447 127.831 239.517 127.748 239.61 127.699C239.658 127.679 239.71 127.669 239.762 127.671C239.814 127.674 239.865 127.688 239.911 127.712C240.505 127.987 241.095 128.265 241.681 128.555C246.558 130.972 251.118 133.987 255.253 137.53C259.249 140.945 263.01 144.846 265.82 149.314Z" fill="white"/>
<path d="M41.5787 189.745C44.9752 189.745 47.7286 188.71 47.7286 187.433C47.7286 186.156 44.9752 185.121 41.5787 185.121C38.1821 185.121 35.4287 186.156 35.4287 187.433C35.4287 188.71 38.1821 189.745 41.5787 189.745Z" fill="#363A41"/>
<path d="M56.3385 189.437C59.735 189.437 62.4884 188.401 62.4884 187.125C62.4884 185.848 59.735 184.812 56.3385 184.812C52.942 184.812 50.1885 185.848 50.1885 187.125C50.1885 188.401 52.942 189.437 56.3385 189.437Z" fill="#363A41"/>
<path d="M75.9328 150.575C81.7444 147.217 85.6031 143.011 84.5513 141.182C83.4996 139.353 77.9357 140.593 72.1241 143.952C66.3125 147.311 62.4539 151.516 63.5056 153.345C64.5574 155.174 70.1212 153.934 75.9328 150.575Z" fill="#363A41"/>
<path d="M70.4772 158.811C72.6263 145.535 63.6328 133.026 50.3898 130.871C37.1468 128.717 24.669 137.733 22.52 151.009C20.3709 164.286 29.3644 176.795 42.6074 178.949C55.8504 181.104 68.3282 172.088 70.4772 158.811Z" fill="#363A41"/>
<path d="M22.9343 132.262C20.9728 123.456 27.2429 114.557 36.9389 112.386C46.635 110.216 56.0853 115.595 58.0468 124.402C60.0083 133.209 53.5823 136.457 43.8863 138.627C34.1902 140.798 24.8958 141.069 22.9343 132.262Z" fill="#E8E8E8"/>
<path d="M30.1117 148.828C31.0142 146.921 26.8323 143.038 20.7714 140.156C14.7104 137.274 9.06543 136.484 8.16299 138.392C7.26056 140.299 11.4424 144.182 17.5034 147.064C23.5643 149.946 29.2093 150.736 30.1117 148.828Z" fill="#363A41"/>
<path d="M34.5663 163.696C34.5663 166.08 40.6881 170.786 47.4811 170.786C54.2742 170.786 60.6434 164.076 60.6434 161.692C60.6434 159.309 54.2742 162.155 47.4811 162.155C40.6881 162.155 34.5663 161.312 34.5663 163.696Z" fill="white"/>
<path d="M131.204 189.745C134.6 189.745 137.354 188.71 137.354 187.433C137.354 186.156 134.6 185.121 131.204 185.121C127.807 185.121 125.054 186.156 125.054 187.433C125.054 188.71 127.807 189.745 131.204 189.745Z" fill="#363A41"/>
<path d="M116.444 189.437C119.84 189.437 122.594 188.401 122.594 187.125C122.594 185.848 119.84 184.812 116.444 184.812C113.047 184.812 110.294 185.848 110.294 187.125C110.294 188.401 113.047 189.437 116.444 189.437Z" fill="#363A41"/>
<path d="M109.277 153.345C110.329 151.516 106.47 147.311 100.658 143.952C94.8468 140.593 89.283 139.353 88.2312 141.182C87.1794 143.011 91.0381 147.217 96.8497 150.575C102.661 153.934 108.225 155.174 109.277 153.345Z" fill="#363A41"/>
<path d="M126.284 179.264C139.7 179.264 150.576 168.36 150.576 154.91C150.576 141.46 139.7 130.557 126.284 130.557C112.868 130.557 101.992 141.46 101.992 154.91C101.992 168.36 112.868 179.264 126.284 179.264Z" fill="#363A41"/>
<path d="M137.354 174.023H129.974V187.279H137.354V174.023Z" fill="#363A41"/>
<path d="M122.594 174.023H115.214V187.279H122.594V174.023Z" fill="#363A41"/>
<path d="M120.592 157.068C125.178 157.068 128.895 153.342 128.895 148.745C128.895 144.148 125.178 140.421 120.592 140.421C116.007 140.421 112.29 144.148 112.29 148.745C112.29 153.342 116.007 157.068 120.592 157.068Z" fill="white"/>
<path d="M118.592 149.568C119.676 148.482 119.683 146.727 118.607 145.647C117.532 144.568 115.781 144.573 114.696 145.659C113.612 146.745 113.605 148.501 114.681 149.58C115.756 150.66 117.507 150.654 118.592 149.568Z" fill="#363A41"/>
<path d="M128.896 138.627C119.2 136.457 112.774 133.209 114.736 124.402C116.697 115.595 126.147 110.216 135.844 112.386C145.54 114.557 151.81 123.456 149.848 132.262C147.887 141.069 138.592 140.798 128.896 138.627Z" fill="#1565D8"/>
<path d="M151.687 173.474C153.722 172.932 153.976 167.224 152.254 160.724C150.532 154.224 147.486 149.394 145.451 149.936C143.415 150.478 143.161 156.187 144.883 162.686C146.605 169.186 149.651 174.016 151.687 173.474Z" fill="#363A41"/>
<path d="M120.78 162.155C116.321 162.155 112.139 159.309 112.139 161.692C112.139 164.076 116.321 170.786 120.78 170.786C125.24 170.786 129.259 166.08 129.259 163.696C129.259 161.313 125.24 162.155 120.78 162.155Z" fill="white"/>
<path d="M89.3865 114.531H87.2292C85.2966 114.529 83.4439 113.758 82.0774 112.388C80.7108 111.018 79.9422 109.161 79.94 107.223V105.408C79.94 100.91 80.79 97.1447 82.4664 94.2155C84.498 90.8081 86.8682 87.6155 89.5408 84.6863C91.315 82.8976 92.9249 80.9523 94.3509 78.8739C95.3741 77.2593 95.9023 75.3792 95.8701 73.4665C95.8701 68.9552 92.9383 66.762 86.907 66.762C83.5613 66.7999 80.2368 67.3002 77.0275 68.2486C75.7898 68.6028 74.487 68.6641 73.2216 68.4279C71.9563 68.1916 70.7629 67.6641 69.7354 66.887C68.7079 66.1098 67.8743 65.1042 67.3003 63.9492C66.7263 62.7943 66.4276 61.5215 66.4275 60.2311V56.5555C66.4204 54.9733 66.8713 53.4229 67.7255 52.0923C68.5798 50.7618 69.8006 49.7083 71.2401 49.0594C76.9082 46.6344 83.0208 45.4289 89.1827 45.5208C95.6379 45.5208 101.465 46.6078 106.503 48.7513C111.55 50.8997 115.538 53.9292 118.355 57.7558C121.163 61.5553 122.656 66.171 122.605 70.8998C122.605 75.9778 121.222 80.4005 118.495 84.0452C115.798 87.6529 111.931 91.6024 107.002 95.7846C104.405 97.9498 101.944 100.274 99.6336 102.744C98.1412 104.355 97.0863 106.324 96.5702 108.461C96.2826 110.162 95.403 111.705 94.0877 112.816C92.7724 113.927 91.1066 114.535 89.3865 114.531Z" fill="#1565D8"/>
<path d="M88.1871 148.896H87.9026C84.3211 148.893 80.8871 147.465 78.3554 144.926C75.8237 142.386 74.4016 138.942 74.4016 135.352C74.4016 131.761 75.8237 128.318 78.3554 125.778C80.8871 123.238 84.3211 121.81 87.9026 121.808H88.1871C89.9619 121.807 91.7196 122.156 93.3597 122.837C94.9998 123.517 96.4901 124.514 97.7455 125.772C99.001 127.03 99.9969 128.523 100.676 130.167C101.356 131.811 101.706 133.573 101.706 135.352C101.706 137.131 101.356 138.893 100.676 140.537C99.9969 142.181 99.001 143.674 97.7455 144.932C96.4901 146.19 94.9998 147.187 93.3597 147.867C91.7196 148.547 89.9619 148.897 88.1871 148.896Z" fill="#1565D8"/>
<path d="M175.985 190H0.564054C0.414457 190 0.270996 189.94 0.165216 189.834C0.0594351 189.728 0 189.585 0 189.435C0 189.285 0.0594351 189.141 0.165216 189.035C0.270996 188.929 0.414457 188.869 0.564054 188.869H175.985C176.134 188.869 176.278 188.929 176.384 189.035C176.489 189.141 176.549 189.285 176.549 189.435C176.549 189.585 176.489 189.728 176.384 189.834C176.278 189.94 176.134 190 175.985 190Z" fill="#E8E8E8"/>
<path d="M294.436 190H200.803C200.653 190 200.51 189.94 200.404 189.834C200.298 189.728 200.239 189.585 200.239 189.435C200.239 189.285 200.298 189.141 200.404 189.035C200.51 188.929 200.653 188.869 200.803 188.869H294.436C294.586 188.869 294.729 188.929 294.835 189.035C294.941 189.141 295 189.285 295 189.435C295 189.585 294.941 189.728 294.835 189.834C294.729 189.94 294.586 190 294.436 190Z" fill="#E8E8E8"/>
<path d="M236.322 173.483C243.029 173.351 248.432 171.533 248.391 169.423C248.35 167.312 242.88 165.707 236.173 165.839C229.466 165.97 224.062 167.788 224.104 169.899C224.145 172.01 229.615 173.614 236.322 173.483Z" fill="#363A41"/>
<path d="M230.225 84.2561H215.56C214.812 84.2552 214.095 83.957 213.566 83.427C213.038 82.8969 212.74 82.1783 212.739 81.4287V66.7263C212.74 65.9767 213.038 65.2581 213.566 64.728C214.095 64.198 214.812 63.8998 215.56 63.8989H230.225C230.973 63.8998 231.689 64.198 232.218 64.728C232.747 65.2581 233.044 65.9767 233.045 66.7263V81.4287C233.044 82.1783 232.747 82.8969 232.218 83.427C231.689 83.957 230.973 84.2552 230.225 84.2561ZM215.56 65.0299C215.111 65.0304 214.681 65.2093 214.364 65.5273C214.046 65.8453 213.868 66.2765 213.867 66.7263V81.4287C213.868 81.8785 214.046 82.3097 214.364 82.6277C214.681 82.9457 215.111 83.1246 215.56 83.1251H230.225C230.674 83.1246 231.104 82.9457 231.421 82.6277C231.738 82.3097 231.917 81.8785 231.917 81.4287V66.7263C231.917 66.2765 231.738 65.8453 231.421 65.5273C231.104 65.2093 230.674 65.0304 230.225 65.0299H215.56Z" fill="#E8E8E8"/>
<path d="M236.994 74.6428H222.328C221.58 74.6419 220.864 74.3438 220.335 73.8137C219.806 73.2837 219.509 72.565 219.508 71.8154V57.113C219.509 56.3634 219.806 55.6448 220.335 55.1147C220.864 54.5847 221.58 54.2865 222.328 54.2856H236.994C237.741 54.2865 238.458 54.5847 238.987 55.1147C239.516 55.6448 239.813 56.3634 239.814 57.113V71.8154C239.813 72.565 239.516 73.2837 238.987 73.8137C238.458 74.3438 237.741 74.6419 236.994 74.6428ZM222.328 55.4166C221.88 55.4171 221.449 55.596 221.132 55.914C220.815 56.232 220.637 56.6633 220.636 57.113V71.8154C220.637 72.2652 220.815 72.6964 221.132 73.0144C221.449 73.3325 221.88 73.5113 222.328 73.5118H236.994C237.442 73.5113 237.872 73.3325 238.19 73.0144C238.507 72.6964 238.685 72.2652 238.686 71.8154V57.113C238.685 56.6633 238.507 56.232 238.19 55.914C237.872 55.596 237.442 55.4171 236.994 55.4166H222.328Z" fill="#E8E8E8"/>
<path d="M121.363 27.7082H106.697C105.949 27.7074 105.233 27.4092 104.704 26.8791C104.175 26.3491 103.878 25.6304 103.877 24.8808V10.1785C103.878 9.42885 104.175 8.7102 104.704 8.18015C105.233 7.6501 105.949 7.35193 106.697 7.35107H121.363C122.11 7.35193 122.827 7.6501 123.356 8.18015C123.885 8.7102 124.182 9.42885 124.183 10.1785V24.8808C124.182 25.6304 123.885 26.3491 123.356 26.8791C122.827 27.4092 122.11 27.7074 121.363 27.7082ZM106.697 8.48203C106.249 8.48252 105.818 8.66141 105.501 8.97944C105.184 9.29748 105.005 9.72868 105.005 10.1785V24.8808C105.005 25.3306 105.184 25.7618 105.501 26.0798C105.818 26.3979 106.249 26.5768 106.697 26.5773H121.363C121.811 26.5768 122.241 26.3979 122.559 26.0798C122.876 25.7618 123.054 25.3306 123.055 24.8808V10.1785C123.054 9.72868 122.876 9.29748 122.559 8.97944C122.241 8.66141 121.811 8.48252 121.363 8.48203H106.697Z" fill="#E8E8E8"/>
<path d="M112.338 20.3571H97.6723C96.9246 20.3563 96.2078 20.0581 95.679 19.5281C95.1503 18.998 94.8529 18.2794 94.8521 17.5298V2.82738C94.8529 2.07778 95.1503 1.35913 95.679 0.829076C96.2078 0.299025 96.9246 0.000857574 97.6723 0H112.338C113.085 0.000857574 113.802 0.299025 114.331 0.829076C114.86 1.35913 115.157 2.07778 115.158 2.82738V17.5298C115.157 18.2794 114.86 18.998 114.331 19.5281C113.802 20.0581 113.085 20.3563 112.338 20.3571ZM97.6723 1.13095C97.2237 1.13144 96.7936 1.31033 96.4763 1.62837C96.1591 1.9464 95.9806 2.37761 95.9802 2.82738V17.5298C95.9806 17.9795 96.1591 18.4107 96.4763 18.7288C96.7936 19.0468 97.2237 19.2257 97.6723 19.2262H112.338C112.786 19.2257 113.216 19.0468 113.534 18.7288C113.851 18.4107 114.029 17.9795 114.03 17.5298V2.82738C114.029 2.37761 113.851 1.9464 113.534 1.62837C113.216 1.31033 112.786 1.13144 112.338 1.13095H97.6723Z" fill="#E8E8E8"/>
<path d="M181.186 107.235C183.2 107.235 184.833 105.598 184.833 103.578C184.833 101.559 183.2 99.9214 181.186 99.9214C179.171 99.9214 177.538 101.559 177.538 103.578C177.538 105.598 179.171 107.235 181.186 107.235Z" fill="#E8E8E8"/>
<path d="M34.5316 94.2293C36.5461 94.2293 38.1793 92.592 38.1793 90.5724C38.1793 88.5528 36.5461 86.9155 34.5316 86.9155C32.517 86.9155 30.8839 88.5528 30.8839 90.5724C30.8839 92.592 32.517 94.2293 34.5316 94.2293Z" fill="#E8E8E8"/>
<path d="M280.459 125.896C282.473 125.896 284.107 124.259 284.107 122.239C284.107 120.22 282.473 118.582 280.459 118.582C278.444 118.582 276.811 120.22 276.811 122.239C276.811 124.259 278.444 125.896 280.459 125.896Z" fill="#E8E8E8"/>
</g>
<defs>
<clipPath id="clip0">
<rect width="295" height="190" fill="white"/>
</clipPath>
</defs>
</svg>
