<svg width="18" height="18" viewBox="0 0 18 18" fill="none" xmlns="http://www.w3.org/2000/svg">
<path d="M9.3634 6.52935C7.80259 6.52935 6.52886 7.80309 6.52886 9.36389C6.52886 10.9247 7.80259 12.1984 9.3634 12.1984C10.9242 12.1984 12.1979 10.9247 12.1979 9.36389C12.1979 7.80309 10.9242 6.52935 9.3634 6.52935ZM17.8649 9.36389C17.8649 8.1901 17.8755 7.02694 17.8096 5.85527C17.7437 4.49435 17.4332 3.28654 16.4381 2.29136C15.4408 1.29406 14.2351 0.985731 12.8741 0.919811C11.7004 0.853892 10.5372 0.864524 9.36553 0.864524C8.19173 0.864524 7.02857 0.853892 5.8569 0.919811C4.49599 0.985731 3.28817 1.29619 2.293 2.29136C1.2957 3.28866 0.987364 4.49435 0.921444 5.85527C0.855525 7.02906 0.866157 8.19222 0.866157 9.36389C0.866157 10.5356 0.855525 11.7008 0.921444 12.8725C0.987364 14.2334 1.29782 15.4412 2.293 16.4364C3.2903 17.4337 4.49599 17.7421 5.8569 17.808C7.0307 17.8739 8.19386 17.8633 9.36553 17.8633C10.5393 17.8633 11.7025 17.8739 12.8741 17.808C14.2351 17.7421 15.4429 17.4316 16.4381 16.4364C17.4354 15.4391 17.7437 14.2334 17.8096 12.8725C17.8777 11.7008 17.8649 10.5377 17.8649 9.36389ZM9.3634 13.7252C6.94989 13.7252 5.00208 11.7774 5.00208 9.36389C5.00208 6.95039 6.94989 5.00257 9.3634 5.00257C11.7769 5.00257 13.7247 6.95039 13.7247 9.36389C13.7247 11.7774 11.7769 13.7252 9.3634 13.7252ZM13.9033 5.84251C13.3398 5.84251 12.8848 5.38745 12.8848 4.82395C12.8848 4.26044 13.3398 3.80539 13.9033 3.80539C14.4668 3.80539 14.9219 4.26044 14.9219 4.82395C14.9221 4.95776 14.8958 5.09028 14.8447 5.21393C14.7936 5.33759 14.7186 5.44994 14.624 5.54456C14.5293 5.63917 14.417 5.71419 14.2933 5.76532C14.1697 5.81645 14.0371 5.84268 13.9033 5.84251Z" fill="white"/>
</svg>
