<svg width="23" height="27" viewBox="0 0 23 27" fill="none" xmlns="http://www.w3.org/2000/svg">
<path d="M17.5375 15.8849C17.5777 15.9251 17.618 15.9653 17.6582 16.0123C17.6917 16.0458 17.7185 16.0726 17.7454 16.1061C17.8996 16.2805 18.0471 16.4548 18.1812 16.6426C18.208 16.6828 18.2348 16.7163 18.2617 16.7566C18.2952 16.8035 18.3287 16.8504 18.3622 16.9041C18.3891 16.9376 18.4092 16.9778 18.436 17.0114C18.4427 17.0181 18.4494 17.0248 18.4494 17.0382C18.4762 17.0784 18.5031 17.1253 18.5299 17.1656C18.5433 17.1924 18.5567 17.2192 18.5701 17.2393C18.5969 17.2863 18.6238 17.3332 18.6506 17.3801C18.6573 17.3936 18.664 17.4003 18.664 17.4137C18.6707 17.4271 18.6774 17.4472 18.6908 17.4606C18.7109 17.5008 18.731 17.5411 18.7512 17.5813C18.7646 17.6014 18.7713 17.6282 18.7847 17.6551C18.8048 17.6886 18.8182 17.7288 18.8383 17.7691C18.8718 17.8495 18.9121 17.9233 18.9389 18.0037C18.9523 18.044 18.9724 18.0842 18.9858 18.1244C18.9993 18.1647 19.0194 18.2049 19.0328 18.2451C19.0462 18.2854 19.0596 18.3256 19.073 18.3658C19.1266 18.5268 19.1803 18.6877 19.2205 18.8553C19.2339 18.8955 19.2406 18.9358 19.2473 18.976C19.2675 19.0565 19.2876 19.1436 19.301 19.2241C19.3144 19.2777 19.3211 19.3247 19.3278 19.3783C19.3345 19.432 19.3479 19.4789 19.3546 19.5325C19.368 19.6264 19.3815 19.7203 19.3882 19.8209C19.3882 19.841 19.3949 19.8611 19.3949 19.8745C19.4016 19.9147 19.4016 19.955 19.4083 19.9952C19.415 20.0489 19.415 20.0958 19.415 20.1494C19.415 20.2031 19.4217 20.25 19.4217 20.3037C19.4217 20.4109 19.4284 20.5182 19.4217 20.6255C19.4217 20.6724 19.4217 20.7194 19.415 20.7663C19.415 20.8468 19.4083 20.934 19.4016 21.0144C19.4016 21.0479 19.3949 21.0748 19.3949 21.1083C19.3613 21.4436 19.301 21.7788 19.2138 22.1074C19.2071 22.1409 19.1937 22.1744 19.187 22.208C19.1803 22.2348 19.1736 22.2683 19.1602 22.2951C19.1468 22.3354 19.1334 22.3756 19.1199 22.4158C19.0529 22.6371 18.9657 22.8584 18.8718 23.0796C18.8584 23.1199 18.8383 23.1601 18.8182 23.2003C18.7981 23.2406 18.778 23.2875 18.7579 23.3277C18.7377 23.3747 18.7109 23.4149 18.6908 23.4619C18.6774 23.4954 18.6573 23.5289 18.6372 23.5557C18.617 23.5893 18.6036 23.6228 18.5835 23.6496C18.4561 23.8709 18.322 24.0854 18.1678 24.2933C18.141 24.3268 18.1142 24.3671 18.0873 24.4006C18.0806 24.4073 18.0739 24.4207 18.0672 24.4274C18.0337 24.4676 18.0069 24.5012 17.9733 24.5414C17.9398 24.5816 17.9063 24.6286 17.8661 24.6688C17.8392 24.7023 17.8057 24.7359 17.7789 24.7694C17.7588 24.7895 17.7387 24.8163 17.7185 24.8364C17.6917 24.8633 17.6716 24.8901 17.6448 24.9169C17.6045 24.9571 17.571 24.9974 17.5308 25.0309C17.4906 25.0711 17.457 25.1047 17.4168 25.1449C17.39 25.1717 17.3632 25.1985 17.3363 25.2186C17.3162 25.2388 17.2894 25.2589 17.2693 25.279C17.2358 25.3125 17.2022 25.3393 17.1687 25.3662C17.1285 25.3997 17.0882 25.4399 17.0413 25.4734C17.0011 25.507 16.9675 25.5338 16.9273 25.5673C16.9206 25.574 16.9072 25.5807 16.9005 25.5874C16.867 25.6143 16.8267 25.6411 16.7932 25.6679C16.5853 25.8221 16.3708 25.9562 16.1495 26.0836C16.116 26.1037 16.0824 26.1172 16.0556 26.1373C16.0221 26.1574 15.9886 26.1708 15.9617 26.1909C15.9148 26.2177 15.8746 26.2378 15.8276 26.258C15.7874 26.2781 15.7405 26.2982 15.7002 26.3183C15.66 26.3384 15.6198 26.3518 15.5795 26.372C15.365 26.4658 15.1437 26.553 14.9157 26.6201C14.8755 26.6335 14.8353 26.6469 14.795 26.6603C14.7682 26.667 14.7347 26.6804 14.7079 26.6871C14.6743 26.6938 14.6408 26.7072 14.6073 26.7139C14.2787 26.8011 13.9435 26.8614 13.6082 26.895C13.5747 26.9017 13.5411 26.9017 13.5143 26.9017C13.4338 26.9084 13.3467 26.9151 13.2662 26.9151C13.2193 26.9151 13.1723 26.9218 13.1254 26.9218C13.0181 26.9218 12.9108 26.9218 12.8036 26.9218C12.7499 26.9218 12.703 26.9218 12.6493 26.9151C12.5957 26.9151 12.5488 26.9084 12.4951 26.9084C12.4549 26.9084 12.4146 26.9017 12.3744 26.895C12.3543 26.895 12.3342 26.895 12.3208 26.8883C12.2269 26.8749 12.133 26.8681 12.0324 26.8547C11.9788 26.848 11.9319 26.8413 11.8782 26.8279C11.8246 26.8212 11.7776 26.8078 11.724 26.8011C11.6368 26.7877 11.5564 26.7676 11.4759 26.7474C11.4357 26.7407 11.3954 26.7273 11.3552 26.7206C11.1943 26.6804 11.0266 26.6335 10.8657 26.5731C10.8255 26.5597 10.7853 26.5463 10.745 26.5329C10.7048 26.5195 10.6646 26.5061 10.6243 26.4859C10.5841 26.4725 10.5439 26.4524 10.5036 26.439C10.4232 26.4055 10.3427 26.372 10.2689 26.3384C10.2354 26.325 10.1952 26.3049 10.155 26.2848C10.1348 26.2714 10.108 26.2647 10.0812 26.2513C10.041 26.2311 10.0007 26.211 9.9605 26.1909C9.94709 26.1842 9.92698 26.1775 9.91357 26.1641L13.3936 22.684C13.407 22.684 13.4271 22.6773 13.4406 22.6706C13.4674 22.6639 13.4942 22.6572 13.521 22.6505C13.5545 22.6438 13.5814 22.6371 13.6149 22.6237C13.6685 22.6103 13.7155 22.5902 13.7691 22.57C13.7892 22.5633 13.8161 22.5566 13.8362 22.5432C13.8429 22.5432 13.8496 22.5365 13.8563 22.5365C13.8764 22.5298 13.8965 22.5231 13.9166 22.5097C13.9367 22.503 13.9502 22.4963 13.9703 22.4896C14.0507 22.4494 14.1312 22.4091 14.2117 22.3555C14.2251 22.3421 14.2452 22.3354 14.2586 22.322L14.2653 22.3152C14.319 22.275 14.3793 22.2348 14.4262 22.1946C14.4531 22.1744 14.4799 22.1476 14.5067 22.1275C14.5402 22.1007 14.567 22.0739 14.5939 22.047C14.6207 22.0202 14.6475 21.9867 14.6743 21.9599C14.7012 21.933 14.7213 21.9062 14.7414 21.8794C14.7816 21.8258 14.8286 21.7721 14.8621 21.7185L14.8688 21.7118C14.8822 21.6984 14.8889 21.6782 14.9023 21.6648C14.9627 21.5777 15.0096 21.4771 15.0565 21.3832C15.0699 21.3631 15.0766 21.3363 15.0834 21.3162C15.0834 21.3095 15.0901 21.3027 15.0901 21.296C15.0968 21.2759 15.1102 21.2491 15.1169 21.229C15.1303 21.182 15.1504 21.1418 15.1638 21.0949C15.1772 21.0614 15.1839 21.0278 15.1906 20.9876V20.9809C15.1973 20.9541 15.2041 20.934 15.2108 20.9071C15.2175 20.8937 15.2175 20.8736 15.2242 20.8602C15.2309 20.8267 15.2376 20.7998 15.2376 20.773C15.251 20.6993 15.2577 20.6255 15.2577 20.5518C15.2577 20.5115 15.2644 20.478 15.2577 20.4378C15.2577 19.8343 15.0163 19.2509 14.5872 18.8218C14.158 18.3926 13.5747 18.1513 12.9712 18.1513C12.3945 18.1513 11.8447 18.3658 11.4223 18.7547C11.3954 18.7748 11.3753 18.8017 11.3485 18.8218C11.3217 18.8486 11.2949 18.8754 11.2747 18.9022C9.9538 20.1897 8.21712 20.7931 6.50057 20.7194C4.93153 20.659 3.38931 20.0287 2.19576 18.8285C2.15553 18.7883 2.1153 18.748 2.07507 18.7011C2.04154 18.6676 2.01472 18.6407 1.9879 18.6072C1.83368 18.4329 1.68616 18.2585 1.55205 18.0708C1.52523 18.0306 1.49841 17.997 1.47159 17.9568C1.43806 17.9099 1.40454 17.8629 1.37101 17.8093C1.34419 17.7758 1.32407 17.7355 1.29725 17.702C1.29055 17.6953 1.28384 17.6886 1.28384 17.6752C1.25702 17.6349 1.2302 17.588 1.20338 17.5478C1.18997 17.521 1.17656 17.4941 1.16315 17.474C1.13633 17.4271 1.1095 17.3801 1.08268 17.3332C1.07598 17.3198 1.06927 17.3131 1.06927 17.2997C1.06257 17.2863 1.05586 17.2662 1.04245 17.2527C1.02234 17.2125 1.00222 17.1723 0.982104 17.132C0.968693 17.1119 0.961988 17.0851 0.948578 17.0583C0.928462 17.0248 0.915051 16.9845 0.894935 16.9443C0.861408 16.8638 0.821177 16.7901 0.794355 16.7096C0.780945 16.6694 0.760829 16.6292 0.747419 16.5889C0.734008 16.5487 0.713892 16.5085 0.700482 16.4682C0.687071 16.428 0.67366 16.3878 0.660249 16.3475C0.606607 16.1866 0.552965 16.0257 0.512733 15.858C0.499322 15.8178 0.492617 15.7776 0.485912 15.7373C0.465796 15.6569 0.44568 15.5697 0.43227 15.4893C0.418859 15.4356 0.412154 15.3887 0.405448 15.335C0.398743 15.2814 0.385332 15.2344 0.378627 15.1808C0.365216 15.0869 0.351806 14.9931 0.3451 14.8925C0.3451 14.8724 0.338395 14.8522 0.338395 14.8388C0.33169 14.7986 0.33169 14.7584 0.324984 14.7181C0.318279 14.6645 0.318279 14.6176 0.318279 14.5639C0.318279 14.5103 0.311574 14.4633 0.311574 14.4097C0.311574 14.3024 0.304869 14.1951 0.311574 14.0878C0.311574 14.0409 0.311574 13.994 0.318279 13.947C0.318279 13.8666 0.324985 13.7794 0.33169 13.6989C0.33169 13.6654 0.338395 13.6386 0.338395 13.6051C0.371922 13.2698 0.432269 12.9345 0.519438 12.606C0.526143 12.5724 0.539554 12.5389 0.546259 12.5054C0.552965 12.4786 0.55967 12.445 0.573081 12.4182C0.586491 12.378 0.599902 12.3378 0.613312 12.2975C0.680366 12.0763 0.767534 11.855 0.861408 11.6337C0.874819 11.5935 0.894935 11.5532 0.915051 11.513C0.935167 11.4728 0.955283 11.4258 0.975399 11.3856C0.995515 11.3387 1.02234 11.2984 1.04245 11.2515C1.05586 11.218 1.07598 11.1844 1.09609 11.1576C1.11621 11.1241 1.12962 11.0906 1.14974 11.0638C1.27714 10.8425 1.41124 10.6279 1.56547 10.42C1.59229 10.3865 1.61911 10.3463 1.64593 10.3128C1.65263 10.3061 1.65934 10.2926 1.66604 10.2859C1.69957 10.2457 1.72639 10.2122 1.75992 10.1719C1.79345 10.1317 1.82697 10.0848 1.8672 10.0445C1.89402 10.011 1.92755 9.97749 1.95437 9.94397C1.97449 9.92385 1.9946 9.89703 2.01472 9.87691C2.04154 9.85009 2.06166 9.82327 2.08848 9.79645C2.12871 9.75622 2.16224 9.71599 2.20247 9.68246C2.2427 9.64223 2.27623 9.6087 2.31646 9.56847C2.34328 9.54165 2.3701 9.51483 2.39692 9.49471C2.41704 9.4746 2.44386 9.45448 2.46398 9.43436C2.4975 9.40084 2.53103 9.37402 2.56456 9.3472C2.60479 9.31367 2.64502 9.27344 2.69196 9.23991C2.73219 9.20638 2.76571 9.17956 2.80595 9.14604C2.81265 9.13933 2.82606 9.13263 2.83277 9.12592C2.86629 9.0991 2.90653 9.07228 2.94005 9.04546C3.14792 8.89123 3.36249 8.75713 3.58376 8.62973C3.61729 8.60961 3.65081 8.5962 3.67764 8.57609C3.71116 8.55597 3.74469 8.54256 3.77151 8.52244C3.81845 8.49562 3.85868 8.47551 3.90562 8.45539C3.94585 8.43527 3.99278 8.41516 4.03302 8.39504C4.07325 8.37493 4.11348 8.36152 4.15371 8.3414C4.36828 8.24753 4.58956 8.16036 4.81754 8.0933C4.85777 8.07989 4.898 8.06648 4.93823 8.05307C4.96505 8.04637 4.99858 8.03296 5.0254 8.02625C5.05893 8.01955 5.09245 8.00613 5.12598 7.99943C5.45454 7.91226 5.78981 7.85191 6.12507 7.81839C6.1586 7.81168 6.19212 7.81168 6.21895 7.81168C6.29941 7.80498 6.38658 7.79827 6.46704 7.79827C6.51398 7.79827 6.56091 7.79156 6.60785 7.79156C6.71514 7.79156 6.82242 7.79156 6.92971 7.79156C6.98335 7.79156 7.03029 7.79157 7.08393 7.79827C7.13757 7.79827 7.18451 7.80498 7.23815 7.80498C7.27838 7.80498 7.31861 7.81168 7.35885 7.81839C7.37896 7.81839 7.39908 7.81839 7.41249 7.82509C7.50636 7.8385 7.60024 7.84521 7.70082 7.85862C7.75446 7.86532 7.8014 7.87203 7.85504 7.88544C7.90868 7.89215 7.95562 7.90556 8.00926 7.91226C8.09643 7.92567 8.17689 7.94579 8.25736 7.9659C8.29759 7.97261 8.33782 7.98602 8.37805 7.99272C8.53898 8.03296 8.70661 8.07989 8.86754 8.14024C8.90777 8.15365 8.948 8.16706 8.98823 8.18047C9.02847 8.19388 9.0687 8.20729 9.10893 8.22741C9.14916 8.24082 9.18939 8.26094 9.22963 8.27435C9.31009 8.30787 9.39055 8.3414 9.46431 8.37493C9.49784 8.38834 9.53807 8.40845 9.5783 8.42857C9.59842 8.44198 9.62524 8.44868 9.65206 8.4621C9.69229 8.48221 9.73252 8.50233 9.77276 8.52244C9.78617 8.52915 9.80628 8.53585 9.81969 8.54926L6.33964 12.0293C6.32623 12.0293 6.30611 12.036 6.2927 12.0427C6.26588 12.0494 6.23906 12.0561 6.21224 12.0628C6.17871 12.0695 6.15189 12.0763 6.11837 12.0897C6.06472 12.1031 6.01779 12.1232 5.96414 12.1433C5.94403 12.15 5.91721 12.1567 5.89709 12.1701C5.89039 12.1701 5.88368 12.1768 5.87697 12.1768C5.85686 12.1835 5.83674 12.1902 5.81663 12.2037C5.79651 12.2104 5.7831 12.2171 5.76298 12.2238C5.68252 12.264 5.60206 12.3042 5.52159 12.3579C5.50818 12.3713 5.48807 12.378 5.47466 12.3914L5.46795 12.3981C5.41431 12.4383 5.35396 12.4786 5.30702 12.5188C5.2802 12.5389 5.25338 12.5657 5.22656 12.5859C5.19303 12.6127 5.16621 12.6395 5.13939 12.6663C5.11257 12.6931 5.08575 12.7267 5.05893 12.7535C5.03211 12.7803 5.01199 12.8071 4.99187 12.834C4.95164 12.8876 4.90471 12.9412 4.87118 12.9949L4.86447 13.0016C4.85106 13.015 4.84436 13.0351 4.83095 13.0485C4.7706 13.1357 4.72366 13.2363 4.67673 13.3301C4.66332 13.3503 4.65661 13.3771 4.6499 13.3972C4.6499 13.4039 4.6432 13.4106 4.6432 13.4173C4.63649 13.4374 4.62308 13.4642 4.61638 13.4844C4.60297 13.5313 4.58285 13.5715 4.56944 13.6185C4.55603 13.652 4.54932 13.6855 4.54262 13.7258V13.7325C4.53591 13.7593 4.52921 13.7794 4.5225 13.8062C4.5158 13.8196 4.5158 13.8397 4.50909 13.8532C4.50239 13.8867 4.49568 13.9135 4.49568 13.9403C4.48227 14.0141 4.47557 14.0878 4.47557 14.1616C4.47557 14.2018 4.46886 14.2354 4.47557 14.2756C4.47557 14.8791 4.71696 15.4624 5.1461 15.8916C5.57524 16.3207 6.1586 16.5621 6.76207 16.5621C7.33873 16.5621 7.88857 16.3475 8.311 15.9586C8.33782 15.9385 8.35794 15.9117 8.38476 15.8916C8.41158 15.8647 8.4384 15.8379 8.45852 15.8111C9.77946 14.5237 11.5161 13.9202 13.2327 13.994C14.795 14.061 16.3372 14.6913 17.5375 15.8849Z" fill="white"/>
<path d="M18.3623 0L20.8835 2.52119L18.939 4.46573L22.2514 7.77815L19.7302 10.2993L16.4178 6.98692L12.3745 11.0302C12.9042 11.9488 13.1858 12.9681 13.2328 13.994C11.5162 13.9202 9.78624 14.5304 8.45859 15.8111C8.84079 15.3887 9.04865 14.8455 9.04865 14.2756C9.04865 13.6654 8.80726 13.0887 8.37812 12.6596C7.94899 12.2305 7.36562 11.9891 6.76215 11.9891C6.68839 11.9891 6.60793 11.9958 6.53417 12.0025C6.49394 12.0025 6.46041 12.0092 6.42018 12.0159C6.38665 12.0226 6.35983 12.0226 6.33301 12.0293L18.3623 0Z" fill="white"/>
</svg>
