<svg width="26" height="32" viewBox="0 0 26 32" fill="none" xmlns="http://www.w3.org/2000/svg">
<path d="M12.7066 21.4816C12.6772 21.511 12.6478 21.5404 12.6184 21.5698C12.5964 21.5919 12.567 21.6213 12.5449 21.6433C12.5743 21.6139 12.5964 21.5845 12.6258 21.5551C12.6478 21.5331 12.6772 21.511 12.7066 21.4816Z" fill="#0000FF"/>
<path d="M19.411 18.3354C19.4551 18.3796 19.4993 18.4237 19.5434 18.4751C19.5801 18.5119 19.6095 18.5413 19.6389 18.578C19.808 18.7691 19.9697 18.9603 20.1167 19.1661C20.1461 19.2102 20.1755 19.247 20.2049 19.2911C20.2417 19.3425 20.2784 19.394 20.3152 19.4528C20.3446 19.4895 20.3667 19.5336 20.3961 19.5704C20.4034 19.5777 20.4108 19.5851 20.4108 19.5998C20.4402 19.6439 20.4696 19.6954 20.499 19.7395C20.5137 19.7689 20.5284 19.7983 20.5431 19.8203C20.5725 19.8718 20.6019 19.9232 20.6313 19.9747C20.6386 19.9894 20.646 19.9967 20.646 20.0114C20.6533 20.0261 20.6607 20.0482 20.6754 20.0629C20.6974 20.107 20.7195 20.1511 20.7415 20.1952C20.7562 20.2173 20.7636 20.2467 20.7783 20.2761C20.8004 20.3128 20.8151 20.3569 20.8371 20.401C20.8739 20.4892 20.918 20.5701 20.9474 20.6583C20.9621 20.7024 20.9841 20.7465 20.9988 20.7906C21.0135 20.8347 21.0356 20.8788 21.0503 20.9229C21.065 20.967 21.0797 21.0112 21.0944 21.0553C21.1532 21.2317 21.212 21.4081 21.2561 21.5919C21.2708 21.636 21.2782 21.6801 21.2855 21.7242C21.3076 21.8124 21.3296 21.908 21.3443 21.9962C21.359 22.055 21.3664 22.1064 21.3737 22.1652C21.3811 22.224 21.3958 22.2755 21.4031 22.3343C21.4178 22.4372 21.4325 22.5401 21.4399 22.6504C21.4399 22.6724 21.4472 22.6945 21.4472 22.7092C21.4546 22.7533 21.4546 22.7974 21.4619 22.8415C21.4693 22.9003 21.4693 22.9518 21.4693 23.0106C21.4693 23.0694 21.4766 23.1208 21.4766 23.1797C21.4766 23.2973 21.484 23.4149 21.4766 23.5325C21.4766 23.584 21.4766 23.6354 21.4693 23.6869C21.4693 23.7751 21.4619 23.8706 21.4546 23.9588C21.4546 23.9956 21.4472 24.025 21.4472 24.0618C21.4105 24.4293 21.3443 24.7968 21.2488 25.157C21.2414 25.1938 21.2267 25.2305 21.2194 25.2673C21.212 25.2967 21.2047 25.3335 21.19 25.3629C21.1752 25.407 21.1605 25.4511 21.1458 25.4952C21.0723 25.7378 20.9768 25.9803 20.8739 26.2229C20.8592 26.267 20.8371 26.3111 20.8151 26.3552C20.793 26.3993 20.771 26.4508 20.7489 26.4949C20.7268 26.5463 20.6974 26.5905 20.6754 26.6419C20.6607 26.6787 20.6386 26.7154 20.6166 26.7448C20.5945 26.7816 20.5798 26.8183 20.5578 26.8477C20.4181 27.0903 20.2711 27.3255 20.102 27.5534C20.0726 27.5902 20.0432 27.6343 20.0138 27.671C20.0065 27.6784 19.9991 27.6931 19.9918 27.7004C19.955 27.7445 19.9256 27.7813 19.8888 27.8254C19.8521 27.8695 19.8153 27.921 19.7712 27.9651C19.7418 28.0018 19.7051 28.0386 19.6757 28.0753C19.6536 28.0974 19.6316 28.1268 19.6095 28.1488C19.5801 28.1782 19.5581 28.2076 19.5287 28.237C19.4846 28.2811 19.4478 28.3253 19.4037 28.362C19.3596 28.4061 19.3228 28.4429 19.2787 28.487C19.2493 28.5164 19.2199 28.5458 19.1905 28.5678C19.1685 28.5899 19.1391 28.6119 19.117 28.634C19.0803 28.6707 19.0435 28.7001 19.0067 28.7295C18.9626 28.7663 18.9185 28.8104 18.8671 28.8472C18.823 28.8839 18.7862 28.9133 18.7421 28.9501C18.7348 28.9574 18.7201 28.9648 18.7127 28.9721C18.676 29.0015 18.6319 29.0309 18.5951 29.0603C18.3672 29.2294 18.132 29.3764 17.8894 29.5161C17.8527 29.5381 17.8159 29.5528 17.7865 29.5749C17.7498 29.597 17.713 29.6117 17.6836 29.6337C17.6321 29.6631 17.588 29.6852 17.5366 29.7072C17.4925 29.7293 17.441 29.7513 17.3969 29.7734C17.3528 29.7954 17.3087 29.8101 17.2646 29.8322C17.0294 29.9351 16.7868 30.0307 16.5369 30.1042C16.4928 30.1189 16.4487 30.1336 16.4045 30.1483C16.3751 30.1556 16.3384 30.1703 16.309 30.1777C16.2722 30.185 16.2355 30.1997 16.1987 30.2071C15.8385 30.3026 15.471 30.3688 15.1034 30.4055C15.0667 30.4129 15.0299 30.4129 15.0005 30.4129C14.9123 30.4202 14.8168 30.4276 14.7286 30.4276C14.6771 30.4276 14.6256 30.4349 14.5742 30.4349C14.4566 30.4349 14.339 30.4349 14.2213 30.4349C14.1625 30.4349 14.1111 30.4349 14.0523 30.4276C13.9935 30.4276 13.942 30.4202 13.8832 30.4202C13.8391 30.4202 13.795 30.4129 13.7509 30.4055C13.7288 30.4055 13.7068 30.4055 13.6921 30.3982C13.5892 30.3835 13.4863 30.3761 13.376 30.3614C13.3172 30.3541 13.2657 30.3467 13.2069 30.332C13.1481 30.3247 13.0967 30.31 13.0379 30.3026C12.9423 30.2879 12.8541 30.2659 12.7659 30.2438C12.7218 30.2365 12.6777 30.2218 12.6336 30.2144C12.4571 30.1703 12.2734 30.1189 12.0969 30.0527C12.0528 30.038 12.0087 30.0233 11.9646 30.0086C11.9205 29.9939 11.8764 29.9792 11.8323 29.9571C11.7882 29.9424 11.7441 29.9204 11.7 29.9057C11.6118 29.8689 11.5236 29.8322 11.4427 29.7954C11.406 29.7807 11.3619 29.7587 11.3178 29.7366C11.2957 29.7219 11.2663 29.7146 11.2369 29.6999C11.1928 29.6778 11.1487 29.6558 11.1046 29.6337C11.0899 29.6264 11.0678 29.619 11.0531 29.6043L14.8682 25.7892C14.8829 25.7892 14.905 25.7819 14.9197 25.7745C14.9491 25.7672 14.9785 25.7598 15.0079 25.7525C15.0446 25.7451 15.074 25.7378 15.1108 25.7231C15.1696 25.7083 15.2211 25.6863 15.2799 25.6642C15.3019 25.6569 15.3313 25.6495 15.3534 25.6348C15.3607 25.6348 15.3681 25.6275 15.3754 25.6275C15.3975 25.6201 15.4195 25.6128 15.4416 25.5981C15.4636 25.5907 15.4783 25.5834 15.5004 25.576C15.5886 25.5319 15.6768 25.4878 15.765 25.429C15.7797 25.4143 15.8018 25.407 15.8165 25.3923L15.8238 25.3849C15.8826 25.3408 15.9488 25.2967 16.0002 25.2526C16.0297 25.2305 16.0591 25.2011 16.0885 25.1791C16.1252 25.1497 16.1546 25.1203 16.184 25.0909C16.2134 25.0615 16.2428 25.0247 16.2722 24.9953C16.3016 24.9659 16.3237 24.9365 16.3457 24.9071C16.3898 24.8483 16.4413 24.7895 16.4781 24.7307L16.4854 24.7233C16.5001 24.7086 16.5075 24.6866 16.5222 24.6719C16.5883 24.5763 16.6398 24.4661 16.6912 24.3631C16.7059 24.3411 16.7133 24.3117 16.7206 24.2896C16.7206 24.2823 16.728 24.2749 16.728 24.2676C16.7353 24.2455 16.75 24.2161 16.7574 24.1941C16.7721 24.1426 16.7941 24.0985 16.8088 24.0471C16.8235 24.0103 16.8309 23.9735 16.8382 23.9294V23.9221C16.8456 23.8927 16.8529 23.8706 16.8603 23.8412C16.8677 23.8265 16.8676 23.8045 16.875 23.7898C16.8824 23.753 16.8897 23.7236 16.8897 23.6942C16.9044 23.6134 16.9118 23.5325 16.9118 23.4516C16.9118 23.4075 16.9191 23.3708 16.9118 23.3267C16.9118 22.6651 16.6471 22.0256 16.1767 21.5551C15.7062 21.0847 15.0667 20.82 14.4051 20.82C13.7729 20.82 13.1702 21.0553 12.7071 21.4816C12.6777 21.5037 12.6556 21.5331 12.6262 21.5551C12.5968 21.5845 12.5674 21.6139 12.5453 21.6433C11.0972 23.0547 9.19336 23.7163 7.31154 23.6354C5.59144 23.5693 3.90075 22.8783 2.59229 21.5625C2.54819 21.5184 2.50408 21.4743 2.45998 21.4228C2.42322 21.386 2.39382 21.3566 2.36442 21.3199C2.19535 21.1288 2.03363 20.9376 1.88661 20.7318C1.85721 20.6877 1.82781 20.651 1.7984 20.6069C1.76165 20.5554 1.72489 20.5039 1.68814 20.4451C1.65874 20.4084 1.63668 20.3643 1.60728 20.3275C1.59993 20.3202 1.59258 20.3128 1.59258 20.2981C1.56317 20.254 1.53377 20.2026 1.50437 20.1585C1.48967 20.1291 1.47496 20.0996 1.46026 20.0776C1.43086 20.0261 1.40146 19.9747 1.37205 19.9232C1.3647 19.9085 1.35735 19.9012 1.35735 19.8865C1.35 19.8718 1.34265 19.8497 1.32795 19.835C1.30589 19.7909 1.28384 19.7468 1.26179 19.7027C1.24709 19.6807 1.23974 19.6512 1.22504 19.6218C1.20298 19.5851 1.18828 19.541 1.16623 19.4969C1.12947 19.4087 1.08537 19.3278 1.05597 19.2396C1.04126 19.1955 1.01921 19.1514 1.00451 19.1073C0.989808 19.0632 0.967756 19.0191 0.953054 18.975C0.938352 18.9309 0.92365 18.8868 0.908949 18.8427C0.850142 18.6662 0.791335 18.4898 0.74723 18.306C0.732528 18.2619 0.725177 18.2178 0.717827 18.1737C0.695774 18.0855 0.673722 17.99 0.65902 17.9017C0.644318 17.8429 0.636967 17.7915 0.629617 17.7327C0.622266 17.6739 0.607564 17.6224 0.600213 17.5636C0.585511 17.4607 0.57081 17.3578 0.563459 17.2475C0.563459 17.2255 0.556108 17.2034 0.556108 17.1887C0.548757 17.1446 0.548757 17.1005 0.541406 17.0564C0.534055 16.9976 0.534055 16.9461 0.534055 16.8873C0.534055 16.8285 0.526705 16.7771 0.526705 16.7183C0.526705 16.6006 0.519354 16.483 0.526705 16.3654C0.526705 16.314 0.526704 16.2625 0.534055 16.2111C0.534055 16.1228 0.541406 16.0273 0.548757 15.9391C0.548757 15.9023 0.556108 15.8729 0.556108 15.8362C0.592862 15.4686 0.65902 15.1011 0.754581 14.7409C0.761932 14.7041 0.776634 14.6674 0.783984 14.6306C0.791335 14.6012 0.798686 14.5645 0.813388 14.5351C0.82809 14.4909 0.842791 14.4468 0.857493 14.4027C0.931001 14.1602 1.02656 13.9176 1.12947 13.675C1.14418 13.6309 1.16623 13.5868 1.18828 13.5427C1.21033 13.4986 1.23239 13.4471 1.25444 13.403C1.27649 13.3516 1.30589 13.3075 1.32795 13.256C1.34265 13.2193 1.3647 13.1825 1.38675 13.1531C1.40881 13.1163 1.42351 13.0796 1.44556 13.0502C1.58523 12.8076 1.73224 12.5724 1.90131 12.3445C1.93072 12.3077 1.96012 12.2636 1.98952 12.2269C1.99688 12.2195 2.00423 12.2048 2.01158 12.1975C2.04833 12.1534 2.07773 12.1166 2.11449 12.0725C2.15124 12.0284 2.188 11.977 2.2321 11.9329C2.26151 11.8961 2.29826 11.8593 2.32766 11.8226C2.34972 11.8005 2.37177 11.7711 2.39382 11.7491C2.42322 11.7197 2.44528 11.6903 2.47468 11.6609C2.51879 11.6168 2.55554 11.5727 2.59964 11.5359C2.64375 11.4918 2.6805 11.455 2.72461 11.4109C2.75401 11.3815 2.78342 11.3521 2.81282 11.3301C2.83487 11.308 2.86428 11.286 2.88633 11.2639C2.92308 11.2272 2.95984 11.1978 2.99659 11.1684C3.0407 11.1316 3.0848 11.0875 3.13626 11.0508C3.18036 11.014 3.21712 10.9846 3.26122 10.9478C3.26857 10.9405 3.28327 10.9331 3.29063 10.9258C3.32738 10.8964 3.37148 10.867 3.40824 10.8376C3.63611 10.6685 3.87134 10.5215 4.11392 10.3818C4.15068 10.3598 4.18743 10.3451 4.21683 10.323C4.25359 10.301 4.29034 10.2863 4.31974 10.2642C4.3712 10.2348 4.41531 10.2128 4.46676 10.1907C4.51087 10.1686 4.56232 10.1466 4.60643 10.1245C4.65053 10.1025 4.69464 10.0878 4.73874 10.0657C4.97397 9.96283 5.21655 9.86726 5.46648 9.79376C5.51058 9.77905 5.55469 9.76435 5.59879 9.74965C5.6282 9.7423 5.66495 9.7276 5.69435 9.72025C5.73111 9.7129 5.76786 9.69819 5.80462 9.69084C6.16481 9.59528 6.53235 9.52913 6.89989 9.49237C6.93665 9.48502 6.9734 9.48502 7.00281 9.48502C7.09102 9.47767 7.18658 9.47032 7.27479 9.47032C7.32624 9.47032 7.3777 9.46297 7.42915 9.46297C7.54677 9.46297 7.66438 9.46297 7.782 9.46297C7.8408 9.46297 7.89226 9.46297 7.95107 9.47032C8.00987 9.47032 8.06133 9.47767 8.12013 9.47767C8.16424 9.47767 8.20835 9.48502 8.25245 9.49237C8.2745 9.49237 8.29655 9.49237 8.31126 9.49972C8.41417 9.51442 8.51708 9.52177 8.62734 9.53648C8.68615 9.54383 8.73761 9.55118 8.79641 9.56588C8.85522 9.57323 8.90668 9.58793 8.96548 9.59528C9.06104 9.60998 9.14925 9.63204 9.23746 9.65409C9.28157 9.66144 9.32568 9.67614 9.36978 9.68349C9.5462 9.7276 9.72997 9.77905 9.90639 9.84521C9.9505 9.85991 9.9946 9.87461 10.0387 9.88932C10.0828 9.90402 10.1269 9.91872 10.171 9.94077C10.2151 9.95547 10.2592 9.97753 10.3033 9.99223C10.3915 10.029 10.4798 10.0657 10.5606 10.1025C10.5974 10.1172 10.6415 10.1392 10.6856 10.1613C10.7076 10.176 10.737 10.1834 10.7664 10.1981C10.8105 10.2201 10.8547 10.2422 10.8988 10.2642C10.9135 10.2716 10.9355 10.2789 10.9502 10.2936L7.13512 14.1087C7.12042 14.1087 7.09837 14.1161 7.08366 14.1234C7.05426 14.1308 7.02486 14.1381 6.99545 14.1455C6.9587 14.1528 6.9293 14.1602 6.89254 14.1749C6.83374 14.1896 6.78228 14.2116 6.72347 14.2337C6.70142 14.241 6.67202 14.2484 6.64996 14.2631C6.64261 14.2631 6.63526 14.2704 6.62791 14.2704C6.60586 14.2778 6.58381 14.2851 6.56175 14.2998C6.5397 14.3072 6.525 14.3145 6.50295 14.3219C6.41474 14.366 6.32653 14.4101 6.23832 14.4689C6.22361 14.4836 6.20156 14.4909 6.18686 14.5057L6.17951 14.513C6.1207 14.5571 6.05455 14.6012 6.00309 14.6453C5.97369 14.6674 5.94428 14.6968 5.91488 14.7188C5.87813 14.7482 5.84872 14.7776 5.81932 14.807C5.78991 14.8364 5.76051 14.8732 5.73111 14.9026C5.7017 14.932 5.67965 14.9614 5.6576 14.9908C5.61349 15.0496 5.56204 15.1084 5.52528 15.1672L5.51793 15.1746C5.50323 15.1893 5.49588 15.2113 5.48118 15.226C5.41502 15.3216 5.36357 15.4319 5.31211 15.5348C5.29741 15.5568 5.29006 15.5862 5.28271 15.6083C5.28271 15.6156 5.27536 15.623 5.27536 15.6303C5.268 15.6524 5.2533 15.6818 5.24595 15.7038C5.23125 15.7553 5.2092 15.7994 5.1945 15.8509C5.17979 15.8876 5.17244 15.9244 5.16509 15.9685V15.9758C5.15774 16.0052 5.15039 16.0273 5.14304 16.0567C5.13569 16.0714 5.13569 16.0934 5.12834 16.1081C5.12099 16.1449 5.11364 16.1743 5.11364 16.2037C5.09893 16.2846 5.09158 16.3654 5.09158 16.4463C5.09158 16.4904 5.08423 16.5271 5.09158 16.5712C5.09158 17.2328 5.35621 17.8723 5.82667 18.3428C6.29712 18.8133 6.93665 19.0779 7.59822 19.0779C8.2304 19.0779 8.83317 18.8427 9.29627 18.4163C9.32568 18.3943 9.34773 18.3648 9.37713 18.3428C9.40653 18.3134 9.43594 18.284 9.45799 18.2546C10.9061 16.8432 12.81 16.1816 14.6918 16.2625C16.4045 16.336 18.0952 17.027 19.411 18.3354Z" fill="#1565D8"/>
<path d="M9.45078 18.2619C9.42138 18.2914 9.39933 18.3208 9.36992 18.3502C9.34052 18.3796 9.31847 18.4016 9.28906 18.4237C9.31847 18.3943 9.34787 18.3649 9.37727 18.3355C9.39932 18.3134 9.42873 18.284 9.45078 18.2619Z" fill="#0000FF"/>
<path d="M20.3154 0.921295L23.0793 3.68522L20.9475 5.81696L24.5789 9.44829L21.8149 12.2122L18.1836 8.58088L13.751 13.0134C14.3318 14.0205 14.6405 15.1378 14.692 16.2625C12.8101 16.1817 10.9136 16.8506 9.45815 18.2546C9.87715 17.7915 10.105 17.1961 10.105 16.5713C10.105 15.9023 9.84039 15.2702 9.36994 14.7997C8.89949 14.3293 8.25996 14.0646 7.59838 14.0646C7.51752 14.0646 7.42931 14.072 7.34846 14.0793C7.30435 14.0793 7.2676 14.0867 7.22349 14.094C7.18674 14.1014 7.15733 14.1014 7.12793 14.1087L20.3154 0.921295Z" fill="#363A41"/>
</svg>
