<svg width="24" height="30" viewBox="0 0 24 30" fill="none" xmlns="http://www.w3.org/2000/svg">
<path d="M0.666342 15C0.666342 14.6243 0.815596 14.2639 1.08127 13.9982C1.34695 13.7326 1.70728 13.5833 2.08301 13.5833H12.8355L9.57718 10.3391C9.44509 10.2071 9.34031 10.0502 9.26882 9.87767C9.19734 9.70509 9.16055 9.52011 9.16055 9.33331C9.16055 9.14651 9.19734 8.96154 9.26882 8.78896C9.34031 8.61638 9.44509 8.45957 9.57718 8.32748C9.70926 8.19539 9.86607 8.09061 10.0387 8.01913C10.2112 7.94764 10.3962 7.91085 10.583 7.91085C10.7698 7.91085 10.9548 7.94764 11.1274 8.01913C11.2999 8.09061 11.4568 8.19539 11.5888 8.32748L17.2555 13.9941C17.3845 14.1289 17.4856 14.2877 17.553 14.4616C17.6947 14.8065 17.6947 15.1934 17.553 15.5383C17.4856 15.7122 17.3845 15.8711 17.2555 16.0058L11.5888 21.6725C11.4571 21.8053 11.3005 21.9107 11.1278 21.9826C10.9552 22.0545 10.77 22.0915 10.583 22.0915C10.396 22.0915 10.2108 22.0545 10.0382 21.9826C9.86556 21.9107 9.70887 21.8053 9.57718 21.6725C9.44439 21.5408 9.339 21.3841 9.26708 21.2115C9.19516 21.0388 9.15813 20.8537 9.15813 20.6666C9.15813 20.4796 9.19516 20.2945 9.26708 20.1218C9.339 19.9492 9.44439 19.7925 9.57718 19.6608L12.8355 16.4166H2.08301C1.70728 16.4166 1.34695 16.2674 1.08127 16.0017C0.815596 15.736 0.666342 15.3757 0.666342 15ZM4.91634 0.833313H19.083C20.2102 0.833313 21.2912 1.28108 22.0882 2.07811C22.8852 2.87514 23.333 3.95614 23.333 5.08331V24.9166C23.333 26.0438 22.8852 27.1248 22.0882 27.9219C21.2912 28.7189 20.2102 29.1666 19.083 29.1666H4.91634C3.78917 29.1666 2.70817 28.7189 1.91114 27.9219C1.11411 27.1248 0.666342 26.0438 0.666342 24.9166V20.6666C0.666342 20.2909 0.815596 19.9306 1.08127 19.6649C1.34695 19.3992 1.70728 19.25 2.08301 19.25C2.45873 19.25 2.81907 19.3992 3.08474 19.6649C3.35042 19.9306 3.49968 20.2909 3.49968 20.6666V24.9166C3.49968 25.2924 3.64893 25.6527 3.91461 25.9184C4.18028 26.1841 4.54062 26.3333 4.91634 26.3333H19.083C19.4587 26.3333 19.8191 26.1841 20.0847 25.9184C20.3504 25.6527 20.4997 25.2924 20.4997 24.9166V5.08331C20.4997 4.70759 20.3504 4.34725 20.0847 4.08158C19.8191 3.8159 19.4587 3.66665 19.083 3.66665H4.91634C4.54062 3.66665 4.18028 3.8159 3.91461 4.08158C3.64893 4.34725 3.49968 4.70759 3.49968 5.08331V9.33331C3.49968 9.70904 3.35042 10.0694 3.08474 10.335C2.81907 10.6007 2.45873 10.75 2.08301 10.75C1.70728 10.75 1.34695 10.6007 1.08127 10.335C0.815596 10.0694 0.666342 9.70904 0.666342 9.33331V5.08331C0.666342 3.95614 1.11411 2.87514 1.91114 2.07811C2.70817 1.28108 3.78917 0.833313 4.91634 0.833313Z" fill="white"/>
</svg>
