<svg width="224" height="79" viewBox="0 0 224 79" fill="none" xmlns="http://www.w3.org/2000/svg">
<rect x="0.5" y="0.5" width="223" height="78" rx="39" fill="#1565D8"/>
<path d="M77.9113 32.14C80.7393 32.14 82.4753 30.46 82.4753 27.688V26.764H78.1213V28.164H80.6413C80.5853 29.55 79.8153 30.684 77.9393 30.684C75.8393 30.684 74.8453 29.214 74.8453 27.072V26.96C74.8453 24.762 75.9793 23.306 77.9393 23.306C79.2413 23.306 80.1373 23.88 80.3613 25.21H82.2233C81.9573 22.816 80.0533 21.836 77.9113 21.836C74.9853 21.836 72.9133 23.964 72.9133 26.946V27.058C72.9133 30.012 74.7053 32.14 77.9113 32.14ZM87.5528 32.14C89.4288 32.14 90.6748 31.3 90.9128 29.76H89.2748C89.1488 30.474 88.6168 30.88 87.5948 30.88C86.3348 30.88 85.6348 30.096 85.5788 28.71H90.9408V28.22C90.9408 25.602 89.3028 24.524 87.4828 24.524C85.3968 24.524 83.8428 26.036 83.8428 28.304V28.416C83.8428 30.726 85.3968 32.14 87.5528 32.14ZM85.6068 27.576C85.7748 26.442 86.4608 25.756 87.4828 25.756C88.5328 25.756 89.1768 26.316 89.2608 27.576H85.6068ZM95.1459 32.126C95.6639 32.126 96.0279 32.042 96.2939 31.944V30.6C96.0559 30.698 95.8039 30.74 95.4679 30.74C94.9359 30.74 94.6279 30.446 94.6279 29.802V25.952H96.2379V24.678H94.6279V23.068H92.9339V24.678H91.9539V25.952H92.9339V29.956C92.9339 31.342 93.6899 32.126 95.1459 32.126ZM101.6 32H103.294V24.678H101.6V32ZM102.426 23.474C102.986 23.474 103.434 23.054 103.434 22.508C103.434 21.948 102.986 21.528 102.426 21.528C101.866 21.528 101.418 21.948 101.418 22.508C101.418 23.054 101.866 23.474 102.426 23.474ZM108.051 32.126C108.569 32.126 108.933 32.042 109.199 31.944V30.6C108.961 30.698 108.709 30.74 108.373 30.74C107.841 30.74 107.533 30.446 107.533 29.802V25.952H109.143V24.678H107.533V23.068H105.839V24.678H104.859V25.952H105.839V29.956C105.839 31.342 106.595 32.126 108.051 32.126ZM117.738 30.824C116.45 30.824 115.708 29.886 115.708 28.388V28.276C115.708 26.764 116.478 25.854 117.738 25.854C118.998 25.854 119.754 26.778 119.754 28.29V28.388C119.754 29.886 118.998 30.824 117.738 30.824ZM117.724 32.14C119.88 32.14 121.49 30.656 121.49 28.374V28.262C121.49 26.022 119.88 24.524 117.738 24.524C115.582 24.524 113.972 26.036 113.972 28.304V28.416C113.972 30.642 115.568 32.14 117.724 32.14ZM123.221 32H124.915V27.688C124.915 26.526 125.685 25.938 126.637 25.938C127.645 25.938 128.093 26.442 128.093 27.548V32H129.787V27.394C129.787 25.378 128.751 24.524 127.281 24.524C126.077 24.524 125.265 25.126 124.915 25.84V24.678H123.221V32Z" fill="white"/>
<path d="M80.2283 59.22C84.6723 59.22 87.4003 56.58 87.4003 52.224V50.772H80.5583V52.972H84.5183C84.4303 55.15 83.2203 56.932 80.2723 56.932C76.9723 56.932 75.4103 54.622 75.4103 51.256V51.08C75.4103 47.626 77.1923 45.338 80.2723 45.338C82.3183 45.338 83.7263 46.24 84.0783 48.33H87.0043C86.5863 44.568 83.5943 43.028 80.2283 43.028C75.6303 43.028 72.3743 46.372 72.3743 51.058V51.234C72.3743 55.876 75.1903 59.22 80.2283 59.22ZM95.3529 57.152C93.3289 57.152 92.1629 55.678 92.1629 53.324V53.148C92.1629 50.772 93.3729 49.342 95.3529 49.342C97.3329 49.342 98.5209 50.794 98.5209 53.17V53.324C98.5209 55.678 97.3329 57.152 95.3529 57.152ZM95.3309 59.22C98.7189 59.22 101.249 56.888 101.249 53.302V53.126C101.249 49.606 98.7189 47.252 95.3529 47.252C91.9649 47.252 89.4349 49.628 89.4349 53.192V53.368C89.4349 56.866 91.9429 59.22 95.3309 59.22ZM109.002 57.152C106.978 57.152 105.812 55.678 105.812 53.324V53.148C105.812 50.772 107.022 49.342 109.002 49.342C110.982 49.342 112.17 50.794 112.17 53.17V53.324C112.17 55.678 110.982 57.152 109.002 57.152ZM108.98 59.22C112.368 59.22 114.898 56.888 114.898 53.302V53.126C114.898 49.606 112.368 47.252 109.002 47.252C105.614 47.252 103.084 49.628 103.084 53.192V53.368C103.084 56.866 105.592 59.22 108.98 59.22ZM122.409 63.224C125.973 63.224 128.239 61.53 128.261 58.142V47.494H125.599V49.254C124.939 48.11 123.795 47.252 121.903 47.252C118.933 47.252 116.733 49.672 116.733 52.906V53.06C116.733 56.382 118.955 58.538 121.837 58.538C123.531 58.538 124.961 57.504 125.599 56.404V58.098C125.599 60.166 124.455 61.2 122.387 61.2C120.649 61.2 119.769 60.54 119.549 59.396H116.865C117.173 61.596 118.801 63.224 122.409 63.224ZM122.497 56.492C120.781 56.492 119.461 55.172 119.461 53.038V52.862C119.461 50.772 120.605 49.342 122.585 49.342C124.499 49.342 125.687 50.64 125.687 52.818V52.972C125.687 55.172 124.345 56.492 122.497 56.492ZM131.691 59H134.353V42.17H131.691V59ZM142.858 59.22C145.806 59.22 147.764 57.9 148.138 55.48H145.564C145.366 56.602 144.53 57.24 142.924 57.24C140.944 57.24 139.844 56.008 139.756 53.83H148.182V53.06C148.182 48.946 145.608 47.252 142.748 47.252C139.47 47.252 137.028 49.628 137.028 53.192V53.368C137.028 56.998 139.47 59.22 142.858 59.22ZM139.8 52.048C140.064 50.266 141.142 49.188 142.748 49.188C144.398 49.188 145.41 50.068 145.542 52.048H139.8ZM156.422 59H159.348V53.016H161.548C164.914 53.016 167.312 51.542 167.312 48.22V48.132C167.312 44.832 165.002 43.27 161.482 43.27H156.422V59ZM159.348 50.904V45.536H161.482C163.352 45.536 164.452 46.262 164.452 48.132V48.22C164.452 49.958 163.418 50.904 161.482 50.904H159.348ZM169.874 59H172.536V42.17H169.874V59ZM178.995 59.22C180.755 59.22 181.767 58.582 182.515 57.592V59H185.133V51.454C185.133 48.308 183.109 47.252 180.535 47.252C177.961 47.252 175.827 48.374 175.607 51.058H178.181C178.313 49.914 178.995 49.254 180.381 49.254C181.943 49.254 182.471 50.024 182.471 51.564V52.158H181.041C177.741 52.158 175.145 53.126 175.145 55.81C175.145 58.208 176.883 59.22 178.995 59.22ZM179.633 57.306C178.313 57.306 177.785 56.668 177.785 55.7C177.785 54.292 179.083 53.83 181.107 53.83H182.471V54.974C182.471 56.448 181.261 57.306 179.633 57.306ZM189.338 62.938H191.956L198.226 47.494H195.63L192.814 54.908L189.756 47.494H186.874L191.428 57.834L189.338 62.938Z" fill="white"/>
<rect x="0.5" y="0.5" width="223" height="78" rx="39" stroke="#E8E8E8"/>
<g clip-path="url(#clip0)">
<path d="M49.5353 45.1131C54.269 42.5112 57.8575 40.5286 58.1669 40.3744C59.1563 39.8477 60.1782 38.4536 58.1669 37.3706C57.5175 37.0301 54.0211 35.1092 49.5353 32.632L43.3167 38.9188L49.5353 45.113V45.1131Z" fill="#FFD900"/>
<path d="M43.3166 38.9188L23.5157 58.8959C23.9805 58.9575 24.5052 58.8342 25.1239 58.4937C26.4226 57.782 40.1911 50.2552 49.5352 45.1146L43.3166 38.9188Z" fill="#F43249"/>
<path d="M43.3166 38.9188L49.5352 32.6629C49.5352 32.6629 26.5166 20.0876 25.1239 19.3452C24.5992 19.0341 24.0112 18.9417 23.485 19.0341L43.3166 38.9188Z" fill="#00EE76"/>
<path d="M43.3166 38.9188L23.485 19.0342C22.6802 19.2205 22 19.9323 22 21.388V56.5421C22 57.8745 22.5263 58.8342 23.5158 58.9267L43.3166 38.9188Z" fill="#00D3FF"/>
</g>
<defs>
<clipPath id="clip0">
<rect x="22" y="19" width="37.3333" height="40" fill="white"/>
</clipPath>
</defs>
</svg>
