<svg width="13" height="16" viewBox="0 0 13 16" fill="none" xmlns="http://www.w3.org/2000/svg">
<path d="M10.9318 5.14268H7.09091V10.3213C7.09091 10.4729 7.02865 10.6182 6.91784 10.7254C6.80702 10.8326 6.65672 10.8928 6.5 10.8928C6.34328 10.8928 6.19298 10.8326 6.08216 10.7254C5.97135 10.6182 5.90909 10.4729 5.90909 10.3213V5.14268H2.06818C1.51985 5.14324 0.994137 5.35414 0.606404 5.7291C0.218672 6.10406 0.000586561 6.61244 0 7.14271V14C0.000586561 14.5302 0.218672 15.0386 0.606404 15.4136C0.994137 15.7885 1.51985 15.9994 2.06818 16H10.9318C11.4802 15.9994 12.0059 15.7885 12.3936 15.4136C12.7813 15.0386 12.9994 14.5302 13 14V7.14271C12.9994 6.61244 12.7813 6.10406 12.3936 5.7291C12.0059 5.35414 11.4802 5.14324 10.9318 5.14268ZM7.09091 1.95084L9.03685 3.8323C9.14856 3.93494 9.29733 3.99132 9.45141 3.98941C9.6055 3.9875 9.75272 3.92746 9.86168 3.82209C9.97065 3.71671 10.0327 3.57434 10.0347 3.42533C10.0367 3.27632 9.97838 3.13247 9.87224 3.02443L6.9177 0.167238C6.80689 0.0601534 6.65665 0 6.5 0C6.34335 0 6.19311 0.0601534 6.0823 0.167238L3.12776 3.02443C3.02162 3.13247 2.96332 3.27632 2.96529 3.42533C2.96726 3.57434 3.02935 3.71671 3.13832 3.82209C3.24728 3.92746 3.3945 3.9875 3.54859 3.98941C3.70267 3.99132 3.85143 3.93494 3.96315 3.8323L5.90909 1.95084V5.14268H7.09091V1.95084Z" fill="white"/>
</svg>
