<svg width="16" height="14" viewBox="0 0 16 14" fill="none" xmlns="http://www.w3.org/2000/svg">
<path fill-rule="evenodd" clip-rule="evenodd" d="M7.5208 4.39316L7.55438 4.9468L6.99479 4.879C4.95791 4.61913 3.17843 3.73784 1.66756 2.25771L0.928908 1.52329L0.73865 2.06563C0.33575 3.27459 0.593158 4.55134 1.43253 5.41004C1.8802 5.88459 1.77948 5.95238 1.00725 5.66991C0.73865 5.57952 0.503625 5.51173 0.481242 5.54563C0.4029 5.62472 0.6715 6.6529 0.884142 7.05965C1.17513 7.62459 1.76828 8.17822 2.4174 8.50589L2.96579 8.76576L2.31668 8.77705C1.68994 8.77705 1.66756 8.78835 1.73471 9.02563C1.95854 9.76004 2.84268 10.5397 3.82755 10.8786L4.52143 11.1159L3.91708 11.4774C3.02175 11.9972 1.96973 12.2909 0.917717 12.3135C0.414092 12.3248 0 12.37 0 12.4039C0 12.5169 1.36538 13.1496 2.15999 13.3982C4.54382 14.1326 7.37531 13.8163 9.50173 12.5621C11.0126 11.6695 12.5235 9.89563 13.2286 8.17822C13.6091 7.26303 13.9896 5.59082 13.9896 4.78861C13.9896 4.26887 14.0232 4.20108 14.6499 3.57965C15.0192 3.2181 15.3662 2.82264 15.4333 2.70965C15.5452 2.49498 15.534 2.49498 14.9633 2.68706C14.012 3.02602 13.8777 2.98082 14.3477 2.47238C14.6947 2.11082 15.1088 1.4555 15.1088 1.26342C15.1088 1.22952 14.9409 1.28602 14.7506 1.38771C14.5492 1.50069 14.1015 1.67017 13.7658 1.77186L13.1614 1.96394L12.613 1.59108C12.3108 1.38771 11.8856 1.16173 11.6617 1.09394C11.0909 0.935759 10.218 0.958356 9.70318 1.13914C8.30422 1.64758 7.42008 2.95823 7.5208 4.39316Z" fill="white"/>
</svg>
