<svg width="18" height="13" viewBox="0 0 18 13" fill="none" xmlns="http://www.w3.org/2000/svg">
<path fill-rule="evenodd" clip-rule="evenodd" d="M15.6677 0.887704C16.4021 1.08921 16.9804 1.68296 17.1767 2.43696C17.5333 3.80351 17.5333 6.65482 17.5333 6.65482C17.5333 6.65482 17.5333 9.50603 17.1767 10.8727C16.9804 11.6267 16.4021 12.2204 15.6677 12.422C14.3369 12.7882 9.00001 12.7882 9.00001 12.7882C9.00001 12.7882 3.66309 12.7882 2.33218 12.422C1.59783 12.2204 1.0195 11.6267 0.823232 10.8727C0.466675 9.50603 0.466675 6.65482 0.466675 6.65482C0.466675 6.65482 0.466675 3.80351 0.823232 2.43696C1.0195 1.68296 1.59783 1.08921 2.33218 0.887704C3.66309 0.521484 9.00001 0.521484 9.00001 0.521484C9.00001 0.521484 14.3369 0.521484 15.6677 0.887704ZM7.40002 4.25476V9.58809L11.6667 6.92153L7.40002 4.25476Z" fill="white"/>
</svg>
